<svg fill="none" height="1024" viewBox="0 0 1024 1024" width="1024" xmlns="http://www.w3.org/2000/svg" xmlns:xlink="http://www.w3.org/1999/xlink"><linearGradient id="a" gradientUnits="userSpaceOnUse" x1="889" x2="156.5" y1="871" y2="138.5"><stop offset="0" stop-color="#2e6d9e"/><stop offset="1" stop-color="#b6fdfb"/></linearGradient><linearGradient id="b" gradientUnits="userSpaceOnUse" x1="774.5" x2="385.5" y1="904" y2="515"><stop offset="0" stop-color="#5493bf"/><stop offset="1" stop-color="#f1ffff"/></linearGradient><linearGradient id="c" gradientUnits="userSpaceOnUse" x1="740.8" x2="362" y1="884.5" y2="505.7"><stop offset="0" stop-color="#5493bf" stop-opacity="0"/><stop offset="1" stop-color="#f1ffff"/></linearGradient><linearGradient id="d" gradientUnits="userSpaceOnUse" x1="360.5" x2="650" y1="356" y2="645.5"><stop offset="0" stop-color="#f2ffff"/><stop offset="1" stop-color="#3271a1"/></linearGradient><clipPath id="e"><path d="m0 0h1024v1024h-1024z"/></clipPath><g clip-path="url(#e)"><circle cx="512" cy="512" fill="url(#a)" r="512"/><path clip-rule="evenodd" d="m511.5 974c254.879 0 461.5-206.621 461.5-461.5s-206.621-461.5-461.5-461.5-461.5 206.621-461.5 461.5 206.621 461.5 461.5 461.5zm0-30c238.311 0 431.5-193.189 431.5-431.5s-193.189-431.5-431.5-431.5-431.5 193.189-431.5 431.5 193.189 431.5 431.5 431.5z" fill="url(#b)" fill-rule="evenodd"/><path clip-rule="evenodd" d="m511.5 1025c283.046 0 512.5-229.454 512.5-512.5s-229.454-512.5-512.5-512.5-512.5 229.454-512.5 512.5 229.454 512.5 512.5 512.5zm0-51c254.879 0 461.5-206.621 461.5-461.5s-206.621-461.5-461.5-461.5-461.5 206.621-461.5 461.5 206.621 461.5 461.5 461.5z" fill="url(#c)" fill-rule="evenodd"/><path d="m507 286-187.5 109-11 231 207.5 111.5 182.5-111.5v-234z" fill="url(#d)"/><g stroke="#011729" stroke-linecap="round" stroke-linejoin="round" stroke-width="45.25"><path d="m715.125 603v-181c-.008-7.935-2.103-15.729-6.074-22.599s-9.679-12.575-16.551-16.542l-158.375-90.5c-6.879-3.972-14.682-6.063-22.625-6.063s-15.746 2.091-22.625 6.063l-158.375 90.5c-6.872 3.967-12.58 9.672-16.551 16.542s-6.066 14.664-6.074 22.599v181c.008 7.935 2.103 15.729 6.074 22.599s9.679 12.575 16.551 16.542l158.375 90.5c6.879 3.972 14.682 6.063 22.625 6.063s15.746-2.091 22.625-6.063l158.375-90.5c6.872-3.967 12.58-9.672 16.551-16.542s6.066-14.664 6.074-22.599z"/><path d="m313.984 398.47 197.516 114.256 197.517-114.256"/><path d="m512 734v-222"/></g></g></svg>