<svg fill="none" height="245" viewBox="0 0 1024 245" width="1024" xmlns="http://www.w3.org/2000/svg" xmlns:xlink="http://www.w3.org/1999/xlink"><linearGradient id="a" gradientUnits="userSpaceOnUse" x1="176.217" x2="58.3852" y1="180.25" y2="62.4179"><stop offset="0" stop-color="#2e6d9e"/><stop offset="1" stop-color="#b6fdfb"/></linearGradient><linearGradient id="b" gradientUnits="userSpaceOnUse" x1="157.798" x2="95.2227" y1="185.558" y2="122.983"><stop offset="0" stop-color="#5493bf"/><stop offset="1" stop-color="#f1ffff"/></linearGradient><linearGradient id="c" gradientUnits="userSpaceOnUse" x1="152.377" x2="91.4424" y1="182.421" y2="121.487"><stop offset="0" stop-color="#5493bf" stop-opacity="0"/><stop offset="1" stop-color="#f1ffff"/></linearGradient><linearGradient id="d" gradientUnits="userSpaceOnUse" x1="91.2012" x2="137.771" y1="97.4055" y2="143.975"><stop offset="0" stop-color="#f2ffff"/><stop offset="1" stop-color="#3271a1"/></linearGradient><clipPath id="e"><path d="m33.2102 40.1384h164.723v164.723h-164.723z"/></clipPath><clipPath id="f"><path d="m230.236 54.6747h760.554v137.287h-760.554z"/></clipPath><clipPath id="g"><path d="m230.236 54.6747h760.782v137.287h-760.782z"/></clipPath><g clip-path="url(#e)"><circle cx="115.572" cy="122.5" fill="url(#a)" r="82.3616"/><path clip-rule="evenodd" d="m115.491 196.818c41.001 0 74.238-33.237 74.238-74.238 0-41.0001-33.237-74.2376-74.238-74.2376-41.0002 0-74.2377 33.2375-74.2377 74.2376 0 41.001 33.2375 74.238 74.2377 74.238zm0-4.825c38.336 0 69.412-31.077 69.412-69.413 0-38.3348-31.076-69.4117-69.412-69.4117-38.335 0-69.4119 31.0769-69.4119 69.4117 0 38.336 31.0769 69.413 69.4119 69.413z" fill="url(#b)" fill-rule="evenodd"/><path clip-rule="evenodd" d="m115.491 205.022c45.532 0 82.442-36.91 82.442-82.442 0-45.531-36.91-82.4416-82.442-82.4416-45.5311 0-82.4417 36.9106-82.4417 82.4416 0 45.532 36.9106 82.442 82.4417 82.442zm0-8.204c41.001 0 74.238-33.237 74.238-74.238 0-41.0001-33.237-74.2376-74.238-74.2376-41.0002 0-74.2377 33.2375-74.2377 74.2376 0 41.001 33.2375 74.238 74.2377 74.238z" fill="url(#c)" fill-rule="evenodd"/><path d="m114.768 86.1451-30.1622 17.5339-1.7695 37.159 33.3787 17.937 29.358-17.937v-37.641z" fill="url(#d)"/><g stroke="#011729" stroke-linecap="round" stroke-linejoin="round" stroke-width="7.27903"><path d="m148.247 137.138v-29.116c-.001-1.276-.338-2.53-.977-3.635s-1.557-2.023-2.662-2.661l-25.477-14.558c-1.107-.6389-2.362-.9753-3.64-.9753-1.277 0-2.532.3364-3.639.9753l-25.4766 14.558c-1.1055.638-2.0237 1.556-2.6625 2.661s-.9758 2.359-.9771 3.635v29.116c.0013 1.277.3383 2.531.9771 3.636s1.557 2.023 2.6625 2.661l25.4766 14.558c1.107.639 2.362.975 3.639.975 1.278 0 2.533-.336 3.64-.975l25.477-14.558c1.105-.638 2.023-1.556 2.662-2.661s.976-2.359.977-3.636z"/><path d="m83.7186 104.237 31.7734 18.38 31.773-18.38"/><path d="m115.572 158.211v-35.711"/></g></g><g clip-path="url(#f)"><g clip-path="url(#g)" fill="#fff"><path d="m230.236 54.6747h47.779c13.063 0 24.276 4.695 33.583 14.085 9.334 9.3899 13.974 20.6579 13.974 33.7763 0 13.118-4.667 24.359-13.974 33.693-9.307 9.335-20.52 13.975-33.583 13.975h-23.89v41.758h-23.889zm23.889 23.8892v47.7781h23.89c6.6 0 12.207-2.32 16.791-6.987 4.585-4.667 6.905-10.301 6.905-16.902 0-6.6005-2.293-12.2345-6.905-16.9018-4.584-4.6674-10.191-6.9873-16.791-6.9873z"/><path d="m344.242 68.7597c9.334-9.39 20.547-14.085 33.693-14.085s24.359 4.695 33.694 14.085c9.334 9.3899 13.974 20.6303 13.974 33.6933v89.509h-23.889v-41.758h-47.585v41.758h-23.889v-89.509c0-13.063 4.667-24.3034 13.974-33.6933zm50.595 16.7915c-4.584-4.6674-10.218-6.9873-16.902-6.9873-6.683 0-12.179 2.2923-16.515 6.9044-4.336 4.5845-6.766 10.2737-7.291 16.9847v23.889h47.585v-23.889c0-6.6005-2.292-12.2345-6.904-16.9018z"/><path d="m431.044 54.6747h23.889l47.585 47.7783v-47.7783h23.889v137.2873h-23.889v-53.606l-47.585-47.7784v101.3564h-23.889z"/><path d="m530.633 54.6747h95.336v23.8892h-35.737v113.3981h-23.89v-113.3981h-35.737v-23.8892z"/><path d="m703.602 111.374h-50.182v-56.6993h-23.889v137.2873h23.889v-56.699h51.148"/><path d="m728.375 168.073c0 6.6 5.358 11.93 11.931 11.93s11.93-5.357 11.93-11.93v-88.2939c0-6.6006-5.357-11.9308-11.93-11.9308s-11.931 5.3578-11.931 11.9308"/><path d="m704.265 69.5329c9.776-9.9147 21.762-14.8582 35.93-14.8582s26.154 4.9435 35.931 14.8582c9.776 9.9148 14.664 21.9008 14.664 36.0131v35.737c0 13.975-4.888 25.933-14.664 35.82-9.777 9.915-21.763 14.859-35.931 14.859s-26.154-4.944-35.93-14.859c-9.777-9.914-14.665-21.845-14.665-35.82v-35.737c0-14.1123 4.888-26.126 14.665-36.0131zm54.765 16.902c-5.247-5.2473-11.516-7.871-18.835-7.871s-13.588 2.6237-18.835 7.871c-5.247 5.2474-7.871 11.627-7.871 19.1391v35.737c0 7.374 2.624 13.698 7.871 18.946 5.247 5.247 11.516 7.871 18.835 7.871s13.588-2.624 18.835-7.871c5.248-5.248 7.871-11.544 7.871-18.946v-35.737c0-7.5121-2.623-13.8917-7.871-19.1391z"/><path d="m796.507 54.6747h47.779c13.063 0 24.276 4.695 33.583 14.085 9.335 9.3899 13.974 20.6303 13.974 33.6933 0 8.81-2.182 16.874-6.517 24.166-4.336 7.318-10.191 13.035-17.565 17.178l25.077 30.296-17.869 17.869-36.731-41.758h-17.869v41.758h-23.889v-137.2873zm23.89 23.8892v47.7781h23.889c6.6 0 12.207-2.32 16.791-6.987 4.585-4.667 6.905-10.301 6.905-16.902 0-6.6005-2.293-12.2345-6.905-16.9018-4.584-4.6674-10.191-6.9873-16.791-6.9873z"/><path d="m909.657 68.7597c9.334-9.39 20.547-14.085 33.693-14.085s24.359 4.695 33.694 14.085c9.334 9.3899 13.974 20.6303 13.974 33.6933v89.509h-23.889v-41.758h-47.585v41.758h-23.889v-89.509c0-13.063 4.667-24.3034 13.974-33.6933zm50.567 16.7915c-4.584-4.6674-10.218-6.9873-16.901-6.9873-6.684 0-12.18 2.2923-16.516 6.9044-4.336 4.5845-6.766 10.2737-7.291 16.9847v23.889h47.585v-23.889c0-6.6005-2.292-12.2345-6.904-16.9018z"/></g></g></svg>