<svg fill="none" height="1025" viewBox="0 0 1024 1025" width="1024" xmlns="http://www.w3.org/2000/svg" xmlns:xlink="http://www.w3.org/1999/xlink"><linearGradient id="a" gradientUnits="userSpaceOnUse" x1="699.948" x2="334.771" y1="584.976" y2="219.799"><stop offset="0" stop-color="#2e6d9e"/><stop offset="1" stop-color="#b6fdfb"/></linearGradient><linearGradient id="b" gradientUnits="userSpaceOnUse" x1="642.865" x2="448.935" y1="601.427" y2="407.497"><stop offset="0" stop-color="#5493bf"/><stop offset="1" stop-color="#f1ffff"/></linearGradient><linearGradient id="c" gradientUnits="userSpaceOnUse" x1="626.065" x2="437.22" y1="591.706" y2="402.861"><stop offset="0" stop-color="#5493bf" stop-opacity="0"/><stop offset="1" stop-color="#f1ffff"/></linearGradient><linearGradient id="d" gradientUnits="userSpaceOnUse" x1="436.472" x2="580.798" y1="328.23" y2="472.556"><stop offset="0" stop-color="#f2ffff"/><stop offset="1" stop-color="#3271a1"/></linearGradient><clipPath id="e"><path d="m256.75 150.752h510.5v510.5h-510.5z"/></clipPath><clipPath id="f"><path d="m60.5 711.252h903v163h-903z"/></clipPath><clipPath id="g"><path d="m60.5 711.252h903.271v163h-903.271z"/></clipPath><g clip-path="url(#e)"><circle cx="512" cy="406.002" fill="url(#a)" r="255.25"/><path clip-rule="evenodd" d="m511.751 636.325c127.066 0 230.074-103.008 230.074-230.074s-103.008-230.074-230.074-230.074c-127.067 0-230.074 103.008-230.074 230.074s103.007 230.074 230.074 230.074zm0-14.956c118.806 0 215.118-96.312 215.118-215.118s-96.312-215.118-215.118-215.118c-118.807 0-215.118 96.312-215.118 215.118s96.311 215.118 215.118 215.118z" fill="url(#b)" fill-rule="evenodd"/><path clip-rule="evenodd" d="m511.751 661.75c141.108 0 255.499-114.391 255.499-255.499s-114.391-255.499-255.499-255.499c-141.109 0-255.5 114.391-255.5 255.499s114.391 255.499 255.5 255.499zm0-25.425c127.066 0 230.074-103.008 230.074-230.074s-103.008-230.074-230.074-230.074c-127.067 0-230.074 103.008-230.074 230.074s103.007 230.074 230.074 230.074z" fill="url(#c)" fill-rule="evenodd"/><path d="m509.507 293.333-93.475 54.34-5.484 115.162 103.446 55.586 90.983-55.586v-116.658z" fill="url(#d)"/><g stroke="#011729" stroke-linecap="round" stroke-linejoin="round" stroke-width="22.5587"><path d="m613.265 451.368v-90.235c-.004-3.956-1.048-7.841-3.028-11.266s-4.825-6.269-8.251-8.247l-78.956-45.117c-3.429-1.98-7.319-3.023-11.279-3.023s-7.85 1.043-11.28 3.023l-78.955 45.117c-3.426 1.978-6.272 4.822-8.251 8.247-1.98 3.425-3.024 7.31-3.028 11.266v90.235c.004 3.956 1.048 7.842 3.028 11.267 1.979 3.424 4.825 6.269 8.251 8.247l78.955 45.117c3.43 1.98 7.32 3.022 11.28 3.022s7.85-1.042 11.279-3.022l78.956-45.117c3.426-1.978 6.271-4.823 8.251-8.247 1.98-3.425 3.024-7.311 3.028-11.267z"/><path d="m413.282 349.403 98.469 56.961 98.469-56.961"/><path d="m512 516.676v-110.674"/></g></g><g clip-path="url(#f)"><g clip-path="url(#g)" fill="#fff"><path d="m60.5 711.252h56.727c15.51 0 28.823 5.574 39.873 16.723 11.083 11.148 16.592 24.527 16.592 40.102s-5.542 28.921-16.592 40.004-24.363 16.592-39.873 16.592h-28.3635v49.579h-28.3635zm28.3635 28.363v56.727h28.3635c7.837 0 14.493-2.754 19.936-8.296 5.444-5.541 8.198-12.231 8.198-20.067 0-7.837-2.722-14.526-8.198-20.068-5.443-5.542-12.099-8.296-19.936-8.296z"/><path d="m195.858 727.975c11.083-11.149 24.396-16.723 40.004-16.723s28.921 5.574 40.004 16.723c11.083 11.148 16.592 24.494 16.592 40.004v106.273h-28.364v-49.579h-56.497v49.579h-28.364v-106.273c0-15.51 5.542-28.856 16.592-40.004zm60.072 19.936c-5.444-5.542-12.133-8.296-20.068-8.296s-14.461 2.722-19.609 8.198c-5.148 5.443-8.033 12.198-8.656 20.166v28.363h56.497v-28.363c0-7.837-2.721-14.526-8.197-20.068z"/><path d="m298.917 711.252h28.364l56.497 56.727v-56.727h28.364v163h-28.364v-63.646l-56.497-56.727v120.34h-28.364z"/><path d="m417.159 711.252h113.191v28.363h-42.43v134.637h-28.364v-134.637h-42.43v-28.363z"/><path d="m622.524 778.57h-59.58v-67.318h-28.364v163h28.364v-67.319h60.727"/><path d="m651.937 845.888c0 7.837 6.361 14.166 14.165 14.166s14.165-6.362 14.165-14.166v-104.83c0-7.837-6.361-14.165-14.165-14.165s-14.165 6.361-14.165 14.165"/><path d="m623.311 728.893c11.607-11.772 25.838-17.641 42.66-17.641 16.821 0 31.052 5.869 42.66 17.641 11.607 11.771 17.411 26.002 17.411 42.758v42.431c0 16.591-5.804 30.79-17.411 42.528-11.608 11.772-25.839 17.642-42.66 17.642-16.822 0-31.053-5.87-42.66-17.642-11.608-11.771-17.412-25.937-17.412-42.528v-42.431c0-16.756 5.804-31.019 17.412-42.758zm65.022 20.067c-6.23-6.23-13.673-9.345-22.362-9.345-8.69 0-16.133 3.115-22.363 9.345s-9.346 13.805-9.346 22.724v42.43c0 8.755 3.116 16.264 9.346 22.494 6.23 6.231 13.673 9.346 22.363 9.346 8.689 0 16.132-3.115 22.362-9.346 6.231-6.23 9.346-13.706 9.346-22.494v-42.43c0-8.919-3.115-16.494-9.346-22.724z"/><path d="m732.83 711.252h56.727c15.51 0 28.823 5.574 39.873 16.723 11.083 11.148 16.592 24.494 16.592 40.004 0 10.46-2.591 20.034-7.739 28.691-5.148 8.689-12.099 15.477-20.854 20.396l29.773 35.97-21.215 21.216-43.611-49.579h-21.215v49.579h-28.364v-163zm28.364 28.363v56.727h28.363c7.837 0 14.493-2.754 19.937-8.296 5.443-5.541 8.197-12.231 8.197-20.067 0-7.837-2.721-14.526-8.197-20.068-5.444-5.542-12.1-8.296-19.937-8.296z"/><path d="m867.171 727.975c11.083-11.149 24.396-16.723 40.004-16.723s28.921 5.574 40.004 16.723c11.083 11.148 16.592 24.494 16.592 40.004v106.273h-28.364v-49.579h-56.497v49.579h-28.364v-106.273c0-15.51 5.542-28.856 16.592-40.004zm60.039 19.936c-5.443-5.542-12.133-8.296-20.068-8.296s-14.46 2.722-19.608 8.198c-5.148 5.443-8.034 12.198-8.657 20.166v28.363h56.498v-28.363c0-7.837-2.722-14.526-8.198-20.068z"/></g></g></svg>